<?xml version="1.0" encoding="UTF-8" standalone="no"?>
<!DOCTYPE svg PUBLIC "-//W3C//DTD SVG 1.1//EN" "http://www.w3.org/Graphics/SVG/1.1/DTD/svg11.dtd">
<svg width="100%" height="100%" viewBox="0 0 2436 932" version="1.1" xmlns="http://www.w3.org/2000/svg" xmlns:xlink="http://www.w3.org/1999/xlink" xml:space="preserve" xmlns:serif="http://www.serif.com/" style="fill-rule:evenodd;clip-rule:evenodd;stroke-linejoin:round;stroke-miterlimit:2;">
    <g transform="matrix(1,0,0,1,-572.653,-448.95)">
        <g transform="matrix(-1,0,0,1,3414.36,290.732)">
            <path d="M406.543,598.372L406.543,594.154L988.669,594.154L988.669,895.333L406.543,895.333L406.543,889.058C408.909,888.994 412.382,888.539 416.987,887.771C412.382,888.539 408.909,888.994 406.543,889.058L406.543,883.162C420.628,871.078 473.31,838.526 559.151,768.293C588.836,744.005 593.784,740.431 595.912,737.949C596.823,738.542 597.678,739.08 598.473,739.557C597.678,739.08 596.823,738.542 595.912,737.949C596.313,737.482 596.614,737.053 596.961,736.533C596.614,737.053 596.313,737.482 595.912,737.949C577.551,725.977 536.53,691.204 504.705,669.988C452.754,635.353 450.632,636.01 406.543,598.372Z" style="fill:rgb(154,187,121);"/>
        </g>
        <g transform="matrix(1,0,0,1,166.11,290.432)">
            <path d="M406.543,598.372L406.543,594.154L988.669,594.154L988.669,895.333L406.543,895.333L406.543,889.058C408.909,888.994 412.382,888.539 416.987,887.771C412.382,888.539 408.909,888.994 406.543,889.058L406.543,883.162C420.628,871.078 473.31,838.526 559.151,768.293C588.836,744.005 593.784,740.431 595.912,737.949C596.823,738.542 597.678,739.08 598.473,739.557C597.678,739.08 596.823,738.542 595.912,737.949C596.313,737.482 596.614,737.053 596.961,736.533C596.614,737.053 596.313,737.482 595.912,737.949C577.551,725.977 536.53,691.204 504.705,669.988C452.754,635.353 450.632,636.01 406.543,598.372Z" style="fill:rgb(154,187,121);"/>
        </g>
        <g transform="matrix(-0.0156737,-0.999877,0.999877,-0.0156737,245.511,1774.32)">
            <path d="M689.028,577.732L874.863,923.381L503.193,923.381L689.028,577.732Z" style="fill:rgb(128,160,95);"/>
        </g>
        <g transform="matrix(0.0156737,-0.999877,-0.999877,-0.0156737,3333.8,1774.58)">
            <path d="M689.028,577.732L874.863,923.381L503.193,923.381L689.028,577.732Z" style="fill:rgb(128,160,95);"/>
        </g>
        <g transform="matrix(1,0,0,1,166.11,290.432)">
            <rect x="646.013" y="782.327" width="1954.86" height="308.104" style="fill:rgb(154,187,121);"/>
        </g>
        <g transform="matrix(1,0,0,1,10.0674,18.0184)">
            <g transform="matrix(250,0,0,250,2328.5,1318.37)">
            </g>
            <text x="1294px" y="1318.37px" style="font-family:'Cochin';font-weight:500;font-size:250px;fill:rgb(243,248,233);stroke:rgb(243,248,233);stroke-width:1px;">B<tspan x="1478.25px 1556px 1666.25px 1813.5px 1905.25px 2015.5px 2139.5px 2249.75px " y="1318.37px 1318.37px 1318.37px 1318.37px 1318.37px 1318.37px 1318.37px 1318.37px ">irdtrest</tspan></text>
        </g>
        <g id="Layer2">
            <path d="M1165.46,1022.02C1190.55,701.55 1459.12,448.95 1786.26,448.95C2113.08,448.95 2381.44,701.055 2406.99,1021.08L2344.5,1021.13C2319.14,735.464 2078.71,511.169 1786.26,511.169C1493.52,511.169 1252.9,735.908 1227.95,1021.98L1165.46,1022.02Z" style="fill:rgb(243,248,233);"/>
        </g>
        <g transform="matrix(0.42326,0,0,0.417556,1423.42,580.703)">
            <g id="Layer3">
                <path d="M1298.5,730.5C1299.25,731.573 1300.25,731.74 1301.5,731C1301.17,730.667 1300.83,730.333 1300.5,730C1301.83,729.667 1303.17,729.333 1304.5,729C1308.25,729.086 1311.92,728.92 1315.5,728.5C1316.38,740.006 1317.38,751.173 1318.5,762C1318.25,767.568 1317.92,773.402 1317.5,779.5C1317.87,781.459 1318.54,783.293 1319.5,785C1318.17,787.667 1318.17,790.333 1319.5,793C1318.83,794.333 1318.17,795.667 1317.5,797C1318.43,798.194 1319.1,799.527 1319.5,801C1318.8,808.654 1318.13,816.321 1317.5,824C1315.77,883.105 1304.27,940.272 1283,995.5C1281.59,998.582 1279.76,1001.42 1277.5,1004C1278.55,1005.39 1278.72,1006.89 1278,1008.5C1268.09,1033.32 1256.09,1057.65 1242,1081.5C1240.7,1083.4 1240.03,1085.4 1240,1087.5C1283.99,1115.44 1329.49,1140.94 1376.5,1164C1390.23,1170.24 1404.23,1175.91 1418.5,1181C1432.51,1192.64 1448.51,1200.3 1466.5,1204C1502.98,1219.16 1538.81,1235.66 1574,1253.5C1574.33,1253.17 1574.67,1252.83 1575,1252.5C1588.25,1259.81 1602.08,1265.98 1616.5,1271C1634.92,1281.07 1653.59,1290.74 1672.5,1300C1699.67,1310.72 1727.34,1320.06 1755.5,1328C1764.32,1331.91 1772.99,1336.08 1781.5,1340.5C1782.8,1344.3 1785.3,1346.97 1789,1348.5C1789.62,1349.45 1789.45,1350.28 1788.5,1351C1789.76,1351.42 1790.42,1352.25 1790.5,1353.5C1788.65,1353.22 1787.32,1353.89 1786.5,1355.5L1786.5,1361.5C1790.81,1365.77 1790.47,1369.6 1785.5,1373C1782.95,1374.38 1780.28,1375.54 1777.5,1376.5C1776.54,1379.56 1774.71,1380.56 1772,1379.5C1767.25,1380.96 1762.41,1382.46 1757.5,1384C1757.83,1384.33 1758.17,1384.67 1758.5,1385C1753.11,1388.74 1747.77,1392.58 1742.5,1396.5C1738.28,1398.08 1733.94,1398.58 1729.5,1398C1719.86,1394.18 1710.19,1390.35 1700.5,1386.5C1698.77,1387.03 1697.44,1388.03 1696.5,1389.5C1701.87,1393.9 1704.87,1399.57 1705.5,1406.5C1712.46,1411.3 1718.96,1416.63 1725,1422.5C1728.53,1427.95 1730.53,1433.95 1731,1440.5C1743.12,1449.48 1755.95,1457.31 1769.5,1464C1772.01,1466.84 1774.84,1469.34 1778,1471.5C1781.86,1476.92 1781.03,1481.76 1775.5,1486C1777.98,1488.3 1777.48,1490.13 1774,1491.5C1772.56,1490.85 1771.06,1490.52 1769.5,1490.5L1769.5,1494.5C1767.47,1494.34 1765.47,1494.5 1763.5,1495C1760.73,1500.3 1756.56,1502.47 1751,1501.5C1738.78,1497.43 1726.95,1492.6 1715.5,1487C1687.93,1471.1 1660.59,1454.76 1633.5,1438C1615.87,1428.83 1598.54,1418.49 1581.5,1407C1563.02,1398.51 1545.02,1389.17 1527.5,1379C1524.6,1376.72 1521.93,1374.22 1519.5,1371.5C1510.24,1365.59 1501.24,1359.25 1492.5,1352.5C1481.25,1347.42 1470.92,1340.92 1461.5,1333C1445.5,1321.66 1428.84,1311.33 1411.5,1302C1409.15,1299.32 1406.49,1296.99 1403.5,1295C1386.58,1284.42 1369.92,1273.42 1353.5,1262C1316.65,1240.8 1281.15,1217.64 1247,1192.5C1229.89,1184.02 1214.39,1173.19 1200.5,1160C1197.57,1158.62 1194.74,1157.12 1192,1155.5C1190.53,1155.9 1189.19,1156.57 1188,1157.5C1185.72,1161.77 1183.06,1165.77 1180,1169.5C1168.7,1181.47 1157.37,1193.47 1146,1205.5C1145.67,1205.17 1145.33,1204.83 1145,1204.5C1141.32,1209.34 1137.16,1213.68 1132.5,1217.5C1131.57,1218.64 1130.74,1218.64 1130,1217.5C1125.14,1224.73 1118.97,1229.9 1111.5,1233C1109.35,1237.94 1105.68,1241.27 1100.5,1243C1096.85,1246.98 1092.85,1250.65 1088.5,1254C1071.64,1265.26 1054.64,1276.26 1037.5,1287C1033.91,1288.96 1030.24,1290.63 1026.5,1292C1030.83,1301 1035.17,1310 1039.5,1319C1047.47,1323.65 1055.47,1328.32 1063.5,1333C1075.86,1337.58 1087.02,1343.42 1097,1350.5C1101.7,1350.45 1106.2,1351.78 1110.5,1354.5C1121.06,1361.64 1132.06,1368.14 1143.5,1374C1165.56,1381.35 1187.56,1389.02 1209.5,1397C1220.77,1399.54 1231.77,1401.87 1242.5,1404C1244.72,1405.89 1245.55,1408.06 1245,1410.5C1249.71,1412.09 1249.54,1413.26 1244.5,1414C1245.94,1414.22 1247.27,1414.72 1248.5,1415.5C1247.16,1415.74 1245.5,1416.24 1243.5,1417C1242.65,1419.18 1241.15,1420.68 1239,1421.5C1231.1,1420.55 1222.93,1419.38 1214.5,1418C1198.69,1413.71 1182.86,1409.54 1167,1405.5C1164.73,1406.17 1163.23,1407.67 1162.5,1410C1164.27,1410.54 1164.6,1411.37 1163.5,1412.5C1160.89,1413.23 1158.22,1413.73 1155.5,1414C1155,1415.16 1154.17,1415.99 1153,1416.5C1149.59,1415.65 1146.26,1414.65 1143,1413.5C1142.49,1415 1142.99,1416.16 1144.5,1417C1142.25,1418.05 1141.91,1419.55 1143.5,1421.5C1140.91,1422.58 1138.75,1424.25 1137,1426.5C1135.39,1425.38 1134.22,1425.88 1133.5,1428C1137.71,1431.08 1140.71,1435.08 1142.5,1440C1140.84,1442.26 1140.5,1444.6 1141.5,1447C1139.88,1447.85 1139.54,1448.85 1140.5,1450C1134.67,1456.85 1127.5,1458.35 1119,1454.5C1118.59,1454.96 1118.09,1455.29 1117.5,1455.5C1106.65,1452.36 1095.65,1449.86 1084.5,1448C1072.95,1442.22 1060.95,1437.56 1048.5,1434C1027.85,1423.34 1006.51,1414.34 984.5,1407C980.646,1404.28 976.313,1402.61 971.5,1402C961.571,1396.91 951.238,1392.57 940.5,1389C927.067,1382.75 914.067,1375.75 901.5,1368C892.16,1360.95 882.66,1354.45 873,1348.5C868.518,1350.96 863.851,1351.96 859,1351.5C845.24,1355.71 831.24,1357.37 817,1356.5C816.5,1357 816,1357.5 815.5,1358C694.887,1369.74 581.887,1346.41 476.5,1288C375.431,1229.93 298.598,1148.76 246,1044.5C238.824,1027.63 231.657,1010.79 224.5,994C219.914,993.803 215.414,994.303 211,995.5C197.227,994.62 183.56,994.62 170,995.5C139.858,993.59 109.358,991.923 78.5,990.5C69.915,991.731 61.581,991.397 53.5,989.5C42.623,988.922 32.289,989.589 22.5,991.5C19.07,990.619 15.737,989.452 12.5,988C11.707,986.915 11.04,985.748 10.5,984.5C12.335,978.336 14.502,972.002 17,965.5C21.554,958.864 25.554,951.864 29,944.5C43.578,925.011 57.911,905.344 72,885.5C96.641,859.966 121.808,835.133 147.5,811C160.924,800.212 174.757,790.045 189,780.5C190.619,776.105 190.786,771.605 189.5,767C189.959,762.828 190.459,758.662 191,754.5C191.36,752.579 192.194,750.912 193.5,749.5C193.023,748.522 192.357,747.689 191.5,747C192.352,715.859 198.019,685.026 208.5,654.5C209.234,646.167 211.067,637.834 214,629.5C215.011,628.663 216.178,628.33 217.5,628.5C217.52,626.857 216.853,625.524 215.5,624.5C230.541,576.935 251.541,532.268 278.5,490.5C284.053,483.751 288.887,476.418 293,468.5C311.009,445.331 329.175,422.331 347.5,399.5C372.402,375.439 398.736,352.939 426.5,332C430.995,330.06 434.995,327.393 438.5,324C439.833,323.667 441.167,323.333 442.5,323C449.934,316.231 457.934,310.231 466.5,305C478.757,299.058 490.757,292.725 502.5,286C508.926,282.789 515.592,280.123 522.5,278C523.167,276.667 524.167,275.667 525.5,275C542.662,268.72 559.829,262.22 577,255.5C577.561,256.022 578.228,256.355 579,256.5C581.882,254.98 584.882,253.647 588,252.5C590.37,255.182 592.37,254.848 594,251.5C594.333,251.833 594.667,252.167 595,252.5C597,251.167 599,249.833 601,248.5C601.333,248.833 601.667,249.167 602,249.5C608.629,246.799 615.462,244.632 622.5,243C630.89,241.318 639.224,239.485 647.5,237.5C650.273,238.08 653.107,238.413 656,238.5C660.561,235.755 665.394,234.755 670.5,235.5C672.642,234.399 674.808,233.399 677,232.5C684.387,231.895 691.721,231.895 699,232.5C699.5,232 700,231.5 700.5,231C720.738,228.847 740.904,227.68 761,227.5C767.359,228.095 773.692,229.095 780,230.5C780.772,230.355 781.439,230.022 782,229.5C783.707,230.459 785.541,231.125 787.5,231.5C797.53,230.347 807.53,230.847 817.5,233C818,233.5 818.5,234 819,234.5C823.843,232.097 828.676,232.43 833.5,235.5C834.167,235.167 834.833,234.833 835.5,234.5C841.468,235.47 847.301,236.803 853,238.5C858.371,237.949 863.371,239.282 868,242.5C871.24,241.085 874.574,241.751 878,244.5C881.457,242.993 884.624,243.493 887.5,246C912.907,251.248 937.407,259.081 961,269.5C974.888,262.476 989.388,256.976 1004.5,253C1011.81,249.668 1019.14,246.335 1026.5,243C1059.49,232.662 1092.15,220.662 1124.5,207C1154.51,198.159 1183.51,186.825 1211.5,173C1241.64,161.157 1270.64,147.157 1298.5,131C1312.05,125.393 1325.72,120.06 1339.5,115C1358.39,105.387 1378.06,97.721 1398.5,92C1426.04,77.061 1454.37,64.061 1483.5,53C1498.04,45.479 1512.21,37.312 1526,28.5C1526.33,28.833 1526.67,29.167 1527,29.5C1529.66,28.166 1532.49,27.332 1535.5,27C1538.7,24.299 1542.03,21.799 1545.5,19.5C1547.1,20.485 1548.76,20.651 1550.5,20C1551.37,17.632 1553.04,16.132 1555.5,15.5C1563.34,19.829 1568.84,26.162 1572,34.5C1580,67.661 1588.84,100.161 1598.5,132C1598.66,137.555 1598.33,142.888 1597.5,148C1600.56,157.721 1603.22,167.554 1605.5,177.5C1604.83,179.101 1604.5,180.601 1604.5,182C1606.82,193.08 1608.82,204.247 1610.5,215.5C1609.84,227.006 1609.34,238.672 1609,250.5C1606.89,277.065 1601.39,302.565 1592.5,327C1593.02,327.561 1593.36,328.228 1593.5,329C1587.63,351.938 1580.96,374.604 1573.5,397C1573.64,397.772 1573.98,398.439 1574.5,399C1571.46,405.314 1570.12,411.814 1570.5,418.5C1570,420.5 1569.5,422.5 1569,424.5C1556.64,457.721 1542.64,490.054 1527,521.5C1523.42,525.205 1520.75,529.538 1519,534.5C1511.46,544.386 1503.46,554.053 1495,563.5C1494.09,562.672 1493.42,561.672 1493,560.5C1493.57,562.693 1493.24,564.693 1492,566.5C1485.97,572.527 1479.97,578.527 1474,584.5C1466.64,596.53 1457.47,607.03 1446.5,616C1443.5,617.667 1440.5,619.333 1437.5,621C1428.94,628.195 1420.11,635.028 1411,641.5C1410.67,640.833 1410.33,640.167 1410,639.5C1408.5,640.333 1407.33,641.5 1406.5,643C1397.76,644.015 1390.26,647.515 1384,653.5C1383.67,653.167 1383.33,652.833 1383,652.5C1382.12,655.346 1380.45,656.013 1378,654.5C1376.44,657.299 1374.28,658.299 1371.5,657.5C1368.8,659.848 1365.8,661.682 1362.5,663C1350.58,665.861 1338.92,669.528 1327.5,674C1298.4,679.983 1269.57,686.817 1241,694.5C1240.67,694.167 1240.33,693.833 1240,693.5C1196.81,703.536 1153.48,706.203 1110,701.5C1109.59,701.957 1109.09,702.291 1108.5,702.5C1096.06,700.141 1083.73,697.308 1071.5,694C1066.2,691.12 1060.7,688.62 1055,686.5C1053.66,687.313 1052.49,687.646 1051.5,687.5C1059.85,697.339 1069.85,705.173 1081.5,711C1086.22,711.561 1090.89,712.228 1095.5,713C1109.81,717.118 1123.81,721.118 1137.5,725C1156.9,728.509 1176.23,730.842 1195.5,732C1202.14,732.395 1208.64,733.561 1215,735.5C1222.02,733.747 1228.85,733.414 1235.5,734.5C1238.49,734.377 1241.32,733.71 1244,732.5C1261.47,732.581 1278.97,732.581 1296.5,732.5C1297.7,732.154 1297.7,731.654 1296.5,731C1297.09,730.536 1297.76,730.369 1298.5,730.5ZM1307.5,731.5C1308.39,730.224 1309.39,730.224 1310.5,731.5C1309.58,732.562 1308.58,732.562 1307.5,731.5ZM1120.5,1190.5C1121.25,1189.43 1122.25,1189.26 1123.5,1190C1122.65,1191.73 1121.65,1191.9 1120.5,1190.5ZM1099.5,1239.5C1100.77,1240.08 1100.77,1240.74 1099.5,1241.5C1098.54,1241.03 1098.54,1240.36 1099.5,1239.5Z" style="fill:rgb(243,248,233);"/>
            </g>
        </g>
    </g>
</svg>
